:version 1.10
:name ASF
:units
  mass 1
  length 1
  angle deg
:documentation
  ASF file generated by Kaydara
:root
  axis xyz
  order  tx ty tz rx ry rz
  position 0 0 0
  orientation 0 0 0
:bonedata
  begin
    id 1
    name RightUpLegDummy
    direction -1 2.30186e-007 8.31532e-007
    length 4.46685
    axis 0 0 0 xyz
  end
  begin
    id 2
    name RightUpLeg
    direction -2.30187e-007 -1 1.24343e-010
    length 16.4045
    axis -3.49089 -0.000906625 0.000286804 xyz
    dof rx ry rz
  end
  begin
    id 3
    name RightLeg
    direction -2.30181e-007 -1 -4.17157e-009
    length 17.5097
    axis 3.68512 0.0193738 -0.131023 xyz
    dof rx ry rz
  end
  begin
    id 4
    name RightFoot
    direction 8.31421e-007 -4.51202e-011 1
    length 6.49508
    axis 4.81691e-005 -0.120479 -0.188788 xyz
    dof rx ry rz
  end
  begin
    id 5
    name RightToes
    direction 0.00124746 -0.014064 0.9999
    length 3.85082
    axis 0.000481921 0.542163 -0.142578 xyz
    dof rx ry rz
  end
  begin
    id 6
    name SpineDummy
    direction 0.0717043 0.9409 -0.331007
    length 10.0032
    axis 0 0 0 xyz
  end
  begin
    id 7
    name Spine
    direction 2.30186e-007 1 4.58806e-011
    length 9.84055
    axis -0.001389 0.000121418 2.40972e-006 xyz
    dof rx ry rz
  end
  begin
    id 8
    name Spine1
    direction 0 0 0
    length 0
    axis -0.001389 0.000121451 1.30017e-006 xyz
    dof rx ry rz
  end
  begin
    id 9
    name HEadDummy
    direction -0.00347485 0.950688 -0.310128
    length 8.00997
    axis -0.001389 0.000121451 1.30017e-006 xyz
  end
  begin
    id 10
    name HEad
    direction -0.0222688 0.980941 0.193023
    length 5.12695
    axis -0.001389 0.000121451 1.30017e-006 xyz
    dof rx ry rz
  end
  begin
    id 11
    name LeftShoulder1Dummy
    direction 0.988871 0.146793 -0.0242004
    length 3.5792
    axis -0.001389 0.000121451 1.30017e-006 xyz
  end
  begin
    id 12
    name LeftShoulder1
    direction 0.993832 0.108932 0.020779
    length 4.16823
    axis -0.001389 0.000121451 1.30017e-006 xyz
    dof rx ry rz
  end
  begin
    id 13
    name LeftArm
    direction 1 3.44807e-006 -8.31404e-007
    length 9.91437
    axis -23.1894 0.134784 0.967509 xyz
    dof rx ry rz
  end
  begin
    id 14
    name LeftForeArm
    direction 1 3.44842e-006 -8.31581e-007
    length 9.08575
    axis -9.91835 -0.06569 -0.177793 xyz
    dof rx ry rz
  end
  begin
    id 15
    name LeftHand
    direction 0.992938 -0.0411636 0.11126
    length 5.32135
    axis -0.00960232 -0.00340091 0.185173 xyz
    dof rx ry rz
  end
  begin
    id 16
    name RightShoulderDummy
    direction -0.988871 0.146793 -0.0241962
    length 3.5792
    axis -0.001389 0.000121451 1.30017e-006 xyz
  end
  begin
    id 17
    name RightShoulder
    direction -0.993832 0.108933 0.0207785
    length 4.16823
    axis 0.215806 0.000203643 -0.0068026 xyz
    dof rx ry rz
  end
  begin
    id 18
    name RightArm
    direction -1 3.90912e-006 8.31284e-007
    length 9.91437
    axis -23.2009 -0.134239 -0.964101 xyz
    dof rx ry rz
  end
  begin
    id 19
    name RightForeArm
    direction -1 3.90882e-006 8.31502e-007
    length 9.08575
    axis -9.92322 0.0658061 0.178867 xyz
    dof rx ry rz
  end
  begin
    id 20
    name RightHand
    direction -0.992843 -0.0414603 0.112003
    length 5.28593
    axis -0.00960638 0.00330671 -0.185228 xyz
    dof rx ry rz
  end
  begin
    id 21
    name LeftUpLegDummy
    direction 1 -2.30186e-007 -8.31532e-007
    length 4.46685
    axis 0 0 0 xyz
  end
  begin
    id 22
    name LeftUpLeg
    direction -2.30187e-007 -1 6.00931e-010
    length 16.4045
    axis -3.48766 0.00143442 -0.000524262 xyz
    dof rx ry rz
  end
  begin
    id 23
    name LeftLeg
    direction -2.30187e-007 -1 1.6669e-009
    length 17.5097
    axis 3.68178 -0.00654042 -0.000285133 xyz
    dof rx ry rz
  end
  begin
    id 24
    name LeftFoot
    direction 8.31532e-007 -4.54478e-011 1
    length 6.49508
    axis 1.87233e-006 4.66016e-005 -8.6538e-006 xyz
    dof rx ry rz
  end
  begin
    id 25
    name LeftToes
    direction 0.00818058 -0.00485161 0.999955
    length 3.85048
    axis 1.06247e-005 4.65869e-005 -8.65513e-006 xyz
    dof rx ry rz
  end
:hierarchy
  begin
    root RightUpLegDummy SpineDummy LeftUpLegDummy
    RightUpLegDummy RightUpLeg
    RightUpLeg RightLeg
    RightLeg RightFoot
    RightFoot RightToes
    SpineDummy Spine
    Spine Spine1
    Spine1 HEadDummy LeftShoulder1Dummy RightShoulderDummy
    HEadDummy HEad
    LeftShoulder1Dummy LeftShoulder1
    LeftShoulder1 LeftArm
    LeftArm LeftForeArm
    LeftForeArm LeftHand
    RightShoulderDummy RightShoulder
    RightShoulder RightArm
    RightArm RightForeArm
    RightForeArm RightHand
    LeftUpLegDummy LeftUpLeg
    LeftUpLeg LeftLeg
    LeftLeg LeftFoot
    LeftFoot LeftToes
  end

:SAMPLES-PER-SECOND 30
:FULLY-SPECIFIED
:DEGREES
1
root  1.49133 33.9556 -0.0151628 -178.256 -4.11066 179.858
RightUpLeg  3.35959 -6.88993 -1.09721
RightLeg  3.13271 -0.968677 0.0102187
RightFoot  3.74271 0.0105188 -0.104906
RightToes  -27.1808 -0.124168 -0.227728
Spine  1.44734 -1.68555 -0.287519
Spine1  2.90539 -3.37648 -0.76768
HEad  14.2448 -1.39385 9.55595
LeftShoulder1  0 -2.42657e-020 -4.95415e-022
LeftArm  -70.2053 15.3039 -11.0041
LeftForeArm  57.7794 -24.4995 -4.56072
LeftHand  0.623917 -8.68711 -8.57711
RightShoulder  0 2.42657e-020 1.07489e-018
RightArm  -73.643 -10.9811 13.3944
RightForeArm  58.631 15.0566 2.67374
RightHand  -0.756774 23.5539 -3.25945
LeftUpLeg  3.27381 4.84672 2.3884
LeftLeg  3.17728 -3.21046 0.0278893
LeftFoot  3.6189 0.0165846 -0.235233
LeftToes  -14.7315 1.18758e-006 1.19596e-007
2
root  1.49279 33.9524 -0.0288867 -178.286 -4.12604 179.869
RightUpLeg  3.43974 -6.90742 -1.09077
RightLeg  3.08289 -0.974138 0.0111081
RightFoot  3.75708 0.0105989 -0.106149
RightToes  -27.2846 -0.124168 -0.227728
Spine  1.45135 -1.68588 -0.29846
Spine1  2.91687 -3.37423 -0.797048
HEad  13.5619 -1.73693 9.8136
LeftShoulder1  0 -2.42657e-020 -4.95415e-022
LeftArm  -69.9346 15.0919 -11.5181
LeftForeArm  57.2253 -24.8065 -4.62763
LeftHand  0.635753 -8.8036 -8.62147
RightShoulder  0 2.42657e-020 1.07489e-018
RightArm  -71.9933 -11.0013 13.7802
RightForeArm  57.801 16.1319 2.87954
RightHand  -0.748207 23.9984 -3.15002
LeftUpLeg  3.34066 4.85824 2.41135
LeftLeg  3.1478 -3.24266 0.0298435
LeftFoot  3.60833 0.0165846 -0.235233
LeftToes  -14.8075 1.18758e-006 1.19596e-007
3
root  1.50014 33.9493 -0.0441729 -178.286 -4.15759 179.857
RightUpLeg  3.55107 -6.21822 -1.01681
RightLeg  2.9222 -1.58482 0.0219668
RightFoot  3.77933 0.0131701 -0.146075
RightToes  -27.1878 -0.124168 -0.227728
Spine  1.47059 -1.71384 -0.323682
Spine1  2.95853 -3.42725 -0.848456
HEad  12.8695 -1.82601 10.0365
LeftShoulder1  0 -2.42657e-020 -4.95415e-022
LeftArm  -69.514 15.0106 -11.9891
LeftForeArm  56.6811 -24.9935 -4.669
LeftHand  0.67324 -8.99985 -8.91549
RightShoulder  0 2.42657e-020 1.07489e-018
RightArm  -71.4409 -10.8737 14.4278
RightForeArm  56.8038 17.3443 3.1145
RightHand  -0.705789 24.1727 -2.92591
LeftUpLeg  3.32916 4.88981 2.42374
LeftLeg  3.21209 -3.30714 0.0267272
LeftFoot  3.55489 0.0165846 -0.235233
LeftToes  -14.7391 1.18758e-006 1.19596e-007
4
root  1.495 33.9449 -0.0673593 -178.268 -4.27187 179.83
RightUpLeg  3.62188 -6.72044 -1.09147
RightLeg  2.87397 -1.2871 0.0190591
RightFoot  3.72601 0.0117929 -0.124689
RightToes  -27.1819 -0.124168 -0.227728
Spine  1.49561 -1.74767 -0.348944
Spine1  3.01199 -3.49195 -0.901515
HEad  12.1475 -1.78451 10.2664
LeftShoulder1  0 -2.42657e-020 -4.95415e-022
LeftArm  -69.0415 14.8624 -12.4686
LeftForeArm  56.4618 -25.0891 -4.69006
LeftHand  0.689435 -9.08826 -9.03504
RightShoulder  0 2.42657e-020 1.07489e-018
RightArm  -70.6754 -10.8953 15.0552
RightForeArm  55.7364 18.3987 3.32183
RightHand  -0.652615 24.1728 -2.67769
LeftUpLeg  3.34073 4.75396 2.38412
LeftLeg  3.19837 -3.28843 0.0273627
LeftFoot  3.54113 0.0165846 -0.235233
LeftToes  -14.7786 1.18758e-006 1.19596e-007
5
root  1.4967 33.9417 -0.0934593 -178.229 -4.36913 179.823
RightUpLeg  3.69218 -6.83178 -1.10222
RightLeg  2.77512 -1.26201 0.0208582
RightFoot  3.72374 0.0116609 -0.122639
RightToes  -27.2155 -0.124168 -0.227728
Spine  1.50479 -1.74817 -0.382377
Spine1  3.03327 -3.49007 -0.970378
HEad  11.5262 -1.6554 10.5453
LeftShoulder1  0 -2.42657e-020 -4.95415e-022
LeftArm  -68.4385 14.604 -12.8789
LeftForeArm  56.6393 -25.215 -4.71687
LeftHand  0.674753 -8.85492 -9.07495
RightShoulder  0 2.42657e-020 1.07489e-018
RightArm  -69.7348 -11.162 15.6275
RightForeArm  55.9061 19.0953 3.45844
RightHand  -0.65865 24.6409 -2.64565
LeftUpLeg  3.36229 4.74222 2.3912
LeftLeg  3.1326 -3.3645 0.031871
LeftFoot  3.55052 0.0168966 -0.240081
LeftToes  -14.8586 1.18758e-006 1.19596e-007
6
root  1.49813 33.9392 -0.128291 -178.162 -4.44026 179.822
RightUpLeg  3.78923 -6.95682 -1.10632
RightLeg  2.59237 -1.20615 0.0237744
RightFoot  3.76285 0.0114799 -0.119829
RightToes  -27.2392 -0.124168 -0.227728
Spine  1.50456 -1.74934 -0.407493
Spine1  3.0347 -3.47501 -1.02216
HEad  11.083 -1.46823 10.832
LeftShoulder1  0 -2.42657e-020 -4.95415e-022
LeftArm  -67.7399 14.4467 -13.1154
LeftForeArm  56.9063 -25.2099 -4.71518
LeftHand  0.7057 -8.94821 -9.3776
RightShoulder  0 2.42657e-020 1.07489e-018
RightArm  -68.7024 -11.3421 15.8542
RightForeArm  55.7853 19.0049 3.44085
RightHand  -0.516933 25.2499 -1.93807
LeftUpLeg  3.37574 4.80709 2.41356
LeftLeg  3.06259 -3.48797 0.0373199
LeftFoot  3.54885 0.017376 -0.247532
LeftToes  -14.9305 1.18758e-006 1.19596e-007
7
root  1.50195 33.9357 -0.17461 -178.085 -4.46227 179.838
RightUpLeg  3.89695 -7.08743 -1.09561
RightLeg  2.38958 -1.10588 0.025725
RightFoot  3.78423 0.0110717 -0.113491
RightToes  -27.2377 -0.124168 -0.227728
Spine  1.48623 -1.74842 -0.415552
Spine1  2.99849 -3.48891 -1.03696
HEad  10.5124 -1.16096 10.9071
LeftShoulder1  0 -2.42657e-020 -4.95415e-022
LeftArm  -67.2364 14.474 -13.2758
LeftForeArm  57.232 -25.1528 -4.70214
LeftHand  0.734449 -9.06249 -9.62469
RightShoulder  0 2.42657e-020 1.07489e-018
RightArm  -68.131 -11.138 15.8478
RightForeArm  56.201 18.1454 3.27136
RightHand  -0.323075 25.4813 -1.05904
LeftUpLeg  3.42252 4.83816 2.44813
LeftLeg  2.96467 -3.54176 0.0439614
LeftFoot  3.54261 0.0175524 -0.250273
LeftToes  -15.0114 1.18758e-006 1.19596e-007
8
root  1.50824 33.931 -0.234082 -178.002 -4.41426 179.858
RightUpLeg  4.01158 -7.13595 -1.07716
RightLeg  2.18675 -0.985604 0.0264415
RightFoot  3.79431 0.0105734 -0.105753
RightToes  -27.1366 -0.124168 -0.227728
Spine  1.46827 -1.74056 -0.42396
Spine1  2.96172 -3.47447 -1.05109
HEad  9.84983 -0.865488 10.9268
LeftShoulder1  0 -2.42657e-020 -4.95415e-022
LeftArm  -67.2801 14.5528 -13.3398
LeftForeArm  58.0829 -24.834 -4.63165
LeftHand  0.717466 -9.4008 -9.08586
RightShoulder  0 2.42657e-020 1.07489e-018
RightArm  -69.2324 -10.766 15.8914
RightForeArm  58.1673 17.0377 3.05241
RightHand  -0.311292 25.5763 -1.00164
LeftUpLeg  3.50937 4.87441 2.48832
LeftLeg  2.84249 -3.52615 0.0512967
LeftFoot  3.48492 0.017264 -0.245791
LeftToes  -14.9411 1.18758e-006 1.19596e-007
9
root  1.51647 33.9252 -0.299875 -177.946 -4.26437 179.892
RightUpLeg  4.11894 -6.96202 -1.01047
RightLeg  2.03094 -1.04269 0.0307352
RightFoot  3.79195 0.0106953 -0.107646
RightToes  -27.0538 -0.124168 -0.227728
Spine  1.42967 -1.68108 -0.425928
Spine1  2.88268 -3.35694 -1.05395
HEad  9.44642 -0.782115 10.9064
LeftShoulder1  0 -2.42657e-020 -4.95415e-022
LeftArm  -67.9552 14.409 -13.2853
LeftForeArm  58.6922 -24.4381 -4.54558
LeftHand  0.706681 -9.22337 -9.12072
RightShoulder  0 2.42657e-020 1.07489e-018
RightArm  -71.0137 -10.2904 15.565
RightForeArm  60.7332 15.1292 2.6828
RightHand  -0.444315 25.4437 -1.59827
LeftUpLeg  3.62543 4.84412 2.53069
LeftLeg  2.77389 -3.36774 0.0530187
LeftFoot  3.39664 0.0163468 -0.231537
LeftToes  -14.9364 1.18758e-006 1.19596e-007
10
root  1.52462 33.9175 -0.374088 -177.949 -4.10603 179.929
RightUpLeg  4.31728 -6.8004 -0.956895
RightLeg  1.84165 -1.05054 0.0321762
RightFoot  3.8069 0.0109593 -0.111744
RightToes  -26.9933 -0.123774 -0.227728
Spine  1.38686 -1.61003 -0.437117
Spine1  2.79532 -3.2161 -1.07684
HEad  9.23184 -0.81418 10.8325
LeftShoulder1  0 -2.42657e-020 -4.95415e-022
LeftArm  -68.3822 14.2998 -13.0772
LeftForeArm  59.4741 -24.1413 -4.48068
LeftHand  0.708667 -9.14457 -9.22091
RightShoulder  0 2.42657e-020 1.07489e-018
RightArm  -73.1379 -9.97391 15.191
RightForeArm  62.5371 13.4162 2.35786
RightHand  -0.494751 25.1269 -1.85022
LeftUpLeg  3.75822 4.85258 2.58412
LeftLeg  2.80881 -3.20704 0.0485184
LeftFoot  3.27026 0.0153379 -0.215858
LeftToes  -15.0805 1.18758e-006 1.19596e-007
11
root  1.53102 33.9096 -0.454573 -177.989 -3.98851 179.953
RightUpLeg  4.60595 -6.60618 -0.914663
RightLeg  1.58261 -1.12555 0.0436324
RightFoot  3.83382 0.0110409 -0.113012
RightToes  -26.895 -0.123488 -0.227727
Spine  1.3577 -1.56098 -0.45016
Spine1  2.73567 -3.11914 -1.10391
HEad  9.03483 -0.827548 10.7119
LeftShoulder1  0 -2.42657e-020 -4.95415e-022
LeftArm  -68.7957 14.2533 -12.8417
LeftForeArm  60.3616 -23.9365 -4.43525
LeftHand  0.704371 -9.09663 -9.21389
RightShoulder  0 2.42657e-020 1.07489e-018
RightArm  -75.2725 -9.74907 14.777
RightForeArm  63.8378 11.9503 2.08411
RightHand  -0.513278 24.7554 -1.96903
LeftUpLeg  3.93496 4.86504 2.63184
LeftLeg  2.84155 -3.11021 0.0452642
LeftFoot  3.11468 0.0144959 -0.202773
LeftToes  -15.0131 1.18758e-006 1.19596e-007
12
root  1.53323 33.9025 -0.534524 -178.036 -3.9277 179.978
RightUpLeg  4.85873 -6.49446 -0.891178
RightLeg  1.42258 -1.17594 0.0527569
RightFoot  3.83955 0.0110606 -0.113317
RightToes  -26.8523 -0.123209 -0.227727
Spine  1.34576 -1.52824 -0.462917
Spine1  2.71102 -3.05444 -1.13194
HEad  8.87035 -0.832226 10.6443
LeftShoulder1  0 -2.42657e-020 -4.95415e-022
LeftArm  -69.0147 14.2793 -12.6282
LeftForeArm  60.5442 -23.9374 -4.43501
LeftHand  0.687665 -8.93035 -9.16588
RightShoulder  0 2.42657e-020 1.07489e-018
RightArm  -76.1704 -9.7683 14.4128
RightForeArm  64.237 10.9838 1.9064
RightHand  -0.549807 24.4295 -2.16993
LeftUpLeg  4.10536 4.93273 2.6887
LeftLeg  2.87714 -3.11586 0.0456774
LeftFoot  2.99215 0.0141519 -0.197427
LeftToes  -15.1231 1.18758e-006 1.19596e-007
13
root  1.53352 33.8943 -0.591188 -178.039 -3.89728 179.987
RightUpLeg  4.98747 -6.55969 -0.905521
RightLeg  1.35953 -1.07179 0.0424026
RightFoot  3.77926 0.0110743 -0.11353
RightToes  -26.8287 -0.122938 -0.227727
Spine  1.32661 -1.52102 -0.466609
Spine1  2.67211 -3.04116 -1.14008
HEad  8.83476 -0.786892 10.5686
LeftShoulder1  0 -2.42657e-020 -4.95415e-022
LeftArm  -68.8984 14.3859 -12.4744
LeftForeArm  60.3429 -24.0003 -4.44879
LeftHand  0.693589 -8.94303 -9.22876
RightShoulder  0 2.42657e-020 1.07489e-018
RightArm  -76.3269 -9.81428 14.1767
RightForeArm  64.2789 10.5197 1.82186
RightHand  -0.558306 24.2061 -2.23372
LeftUpLeg  4.19322 4.94903 2.7053
LeftLeg  2.90989 -3.09082 0.0412874
LeftFoot  2.87381 0.0136931 -0.190297
LeftToes  -15.0703 1.18758e-006 1.19596e-007
14
root  1.53295 33.8872 -0.6705 -178.02 -3.82661 179.984
RightUpLeg  5.15109 -6.43808 -0.896892
RightLeg  1.24105 -1.13489 0.0523136
RightFoot  3.73362 0.011138 -0.11452
RightToes  -26.7878 -0.122674 -0.227727
Spine  1.28144 -1.50967 -0.473146
Spine1  2.58078 -3.02047 -1.15209
HEad  8.88092 -0.724758 10.4139
LeftShoulder1  0 -2.42657e-020 -4.95415e-022
LeftArm  -68.887 14.5121 -12.264
LeftForeArm  60.4093 -23.9888 -4.4462
LeftHand  0.699686 -8.99377 -9.25587
RightShoulder  0 2.42657e-020 1.07489e-018
RightArm  -76.6413 -9.85552 13.9201
RightForeArm  64.6306 10.0487 1.73561
RightHand  -0.604425 24.1396 -2.45673
LeftUpLeg  4.35634 5.00466 2.72245
LeftLeg  2.84031 -3.07759 0.0448534
LeftFoot  2.80275 0.0134387 -0.186344
LeftToes  -15.1025 1.18758e-006 1.19596e-007
